<?xml version="1.0" encoding="UTF-8"?>
<svg viewBox="0 0 920 700" xmlns="http://www.w3.org/2000/svg" font-family="Consolas, monospace">

  <rect width="920" height="700" fill="#08080f"/>

  <text x="460" y="36" fill="#60a5fa" font-size="18" font-weight="700" text-anchor="middle">SpacePad — Key Matrix Wiring</text>
  <text x="460" y="56" fill="#64748b" font-size="11" text-anchor="middle">keypad.KeyMatrix · columns_to_anodes=False · diode anode→ROW, cathode(stripe)→COL</text>

  <!-- COLUMN LINES (vertical, blue) -->
  <line x1="250" y1="92" x2="250" y2="590" stroke="#3b82f6" stroke-width="2"/>
  <line x1="350" y1="92" x2="350" y2="590" stroke="#3b82f6" stroke-width="2"/>
  <line x1="450" y1="92" x2="450" y2="590" stroke="#3b82f6" stroke-width="2"/>
  <line x1="550" y1="350" x2="550" y2="590" stroke="#3b82f6" stroke-width="2"/>
  <line x1="650" y1="350" x2="650" y2="590" stroke="#3b82f6" stroke-width="2"/>

  <!-- Col labels -->
  <rect x="218" y="74" width="64" height="22" rx="4" fill="#1e3a5f"/>
  <text x="250" y="89" fill="#3b82f6" font-size="12" font-weight="700" text-anchor="middle">GP9 C0</text>
  <rect x="318" y="74" width="64" height="22" rx="4" fill="#1e3a5f"/>
  <text x="350" y="89" fill="#3b82f6" font-size="12" font-weight="700" text-anchor="middle">GP8 C1</text>
  <rect x="418" y="74" width="64" height="22" rx="4" fill="#1e3a5f"/>
  <text x="450" y="89" fill="#3b82f6" font-size="12" font-weight="700" text-anchor="middle">GP7 C2</text>
  <rect x="518" y="328" width="64" height="22" rx="4" fill="#1e3a5f"/>
  <text x="550" y="343" fill="#3b82f6" font-size="12" font-weight="700" text-anchor="middle">GP6 C3</text>
  <rect x="618" y="328" width="64" height="22" rx="4" fill="#1e3a5f"/>
  <text x="650" y="343" fill="#3b82f6" font-size="12" font-weight="700" text-anchor="middle">GP5 C4</text>

  <!-- ROW LINES (horizontal, green) -->
  <line x1="100" y1="160" x2="480" y2="160" stroke="#22c55e" stroke-width="2"/>
  <line x1="100" y1="260" x2="480" y2="260" stroke="#22c55e" stroke-width="2"/>
  <line x1="100" y1="360" x2="680" y2="360" stroke="#22c55e" stroke-width="2"/>
  <line x1="100" y1="460" x2="680" y2="460" stroke="#22c55e" stroke-width="2"/>
  <line x1="330" y1="560" x2="680" y2="560" stroke="#22c55e" stroke-width="2"/>

  <!-- Row pin labels -->
  <rect x="28" y="149" width="64" height="22" rx="4" fill="#14532d"/>
  <text x="60" y="164" fill="#22c55e" font-size="12" font-weight="700" text-anchor="middle">GP0 R0</text>
  <line x1="92" y1="160" x2="100" y2="160" stroke="#22c55e" stroke-width="2"/>
  <rect x="28" y="249" width="64" height="22" rx="4" fill="#14532d"/>
  <text x="60" y="264" fill="#22c55e" font-size="12" font-weight="700" text-anchor="middle">GP1 R1</text>
  <line x1="92" y1="260" x2="100" y2="260" stroke="#22c55e" stroke-width="2"/>
  <rect x="28" y="349" width="64" height="22" rx="4" fill="#14532d"/>
  <text x="60" y="364" fill="#22c55e" font-size="12" font-weight="700" text-anchor="middle">GP2 R2</text>
  <line x1="92" y1="360" x2="100" y2="360" stroke="#22c55e" stroke-width="2"/>
  <rect x="28" y="449" width="64" height="22" rx="4" fill="#14532d"/>
  <text x="60" y="464" fill="#22c55e" font-size="12" font-weight="700" text-anchor="middle">GP3 R3</text>
  <line x1="92" y1="460" x2="100" y2="460" stroke="#22c55e" stroke-width="2"/>
  <rect x="28" y="549" width="64" height="22" rx="4" fill="#14532d"/>
  <text x="60" y="564" fill="#22c55e" font-size="12" font-weight="700" text-anchor="middle">GP4 R4</text>
  <line x1="92" y1="560" x2="100" y2="560" stroke="#22c55e" stroke-width="2"/>

  <!-- KEY CELL MACRO
       Each cell: row comes in from left, hits diode (anode=row, triangle→right, bar=cathode),
       short wire continues to col intersection. Switch on col line above intersection.
       Diode at (cx-38 to cx), switch ticks at (cy-12 to cy-4) on col line.
  -->

  <!-- ROW 0 ─────────────────────────────────── -->
  <!-- [0,0] GUI+C -->
  <line x1="200" y1="160" x2="212" y2="160" stroke="#22c55e" stroke-width="2"/>
  <polygon points="212,160 224,153 224,167" fill="#f97316" stroke="#f97316" stroke-width="1"/>
  <line x1="224" y1="154" x2="224" y2="166" stroke="#f97316" stroke-width="2.5"/>
  <line x1="224" y1="160" x2="250" y2="160" stroke="#22c55e" stroke-width="2"/>
  <line x1="250" y1="100" x2="250" y2="148" stroke="#3b82f6" stroke-width="2"/>
  <line x1="243" y1="148" x2="243" y2="157" stroke="#eab308" stroke-width="2.5"/>
  <line x1="257" y1="148" x2="257" y2="157" stroke="#eab308" stroke-width="2.5"/>
  <line x1="250" y1="157" x2="250" y2="160" stroke="#3b82f6" stroke-width="2"/>
  <circle cx="250" cy="160" r="3.5" fill="#60a5fa"/>
  <rect x="226" y="166" width="48" height="16" rx="3" fill="#1e1e30"/>
  <text x="250" y="178" fill="#94a3b8" font-size="9" text-anchor="middle">GUI+C</text>

  <!-- [0,1] GUI+V -->
  <line x1="300" y1="160" x2="312" y2="160" stroke="#22c55e" stroke-width="2"/>
  <polygon points="312,160 324,153 324,167" fill="#f97316" stroke="#f97316" stroke-width="1"/>
  <line x1="324" y1="154" x2="324" y2="166" stroke="#f97316" stroke-width="2.5"/>
  <line x1="324" y1="160" x2="350" y2="160" stroke="#22c55e" stroke-width="2"/>
  <line x1="350" y1="100" x2="350" y2="148" stroke="#3b82f6" stroke-width="2"/>
  <line x1="343" y1="148" x2="343" y2="157" stroke="#eab308" stroke-width="2.5"/>
  <line x1="357" y1="148" x2="357" y2="157" stroke="#eab308" stroke-width="2.5"/>
  <line x1="350" y1="157" x2="350" y2="160" stroke="#3b82f6" stroke-width="2"/>
  <circle cx="350" cy="160" r="3.5" fill="#60a5fa"/>
  <rect x="326" y="166" width="48" height="16" rx="3" fill="#1e1e30"/>
  <text x="350" y="178" fill="#94a3b8" font-size="9" text-anchor="middle">GUI+V</text>

  <!-- [0,2] GUI+A -->
  <line x1="400" y1="160" x2="412" y2="160" stroke="#22c55e" stroke-width="2"/>
  <polygon points="412,160 424,153 424,167" fill="#f97316" stroke="#f97316" stroke-width="1"/>
  <line x1="424" y1="154" x2="424" y2="166" stroke="#f97316" stroke-width="2.5"/>
  <line x1="424" y1="160" x2="450" y2="160" stroke="#22c55e" stroke-width="2"/>
  <line x1="450" y1="100" x2="450" y2="148" stroke="#3b82f6" stroke-width="2"/>
  <line x1="443" y1="148" x2="443" y2="157" stroke="#eab308" stroke-width="2.5"/>
  <line x1="457" y1="148" x2="457" y2="157" stroke="#eab308" stroke-width="2.5"/>
  <line x1="450" y1="157" x2="450" y2="160" stroke="#3b82f6" stroke-width="2"/>
  <circle cx="450" cy="160" r="3.5" fill="#60a5fa"/>
  <rect x="426" y="166" width="48" height="16" rx="3" fill="#1e1e30"/>
  <text x="450" y="178" fill="#94a3b8" font-size="9" text-anchor="middle">GUI+A</text>

  <!-- ROW 1 ─────────────────────────────────── -->
  <!-- [1,0] GUI+ALT+V -->
  <line x1="200" y1="260" x2="212" y2="260" stroke="#22c55e" stroke-width="2"/>
  <polygon points="212,260 224,253 224,267" fill="#f97316" stroke="#f97316" stroke-width="1"/>
  <line x1="224" y1="254" x2="224" y2="266" stroke="#f97316" stroke-width="2.5"/>
  <line x1="224" y1="260" x2="250" y2="260" stroke="#22c55e" stroke-width="2"/>
  <line x1="250" y1="180" x2="250" y2="248" stroke="#3b82f6" stroke-width="2"/>
  <line x1="243" y1="248" x2="243" y2="257" stroke="#eab308" stroke-width="2.5"/>
  <line x1="257" y1="248" x2="257" y2="257" stroke="#eab308" stroke-width="2.5"/>
  <line x1="250" y1="257" x2="250" y2="260" stroke="#3b82f6" stroke-width="2"/>
  <circle cx="250" cy="260" r="3.5" fill="#60a5fa"/>
  <rect x="214" y="266" width="72" height="16" rx="3" fill="#1e1e30"/>
  <text x="250" y="278" fill="#94a3b8" font-size="8" text-anchor="middle">GUI+ALT+V</text>

  <!-- [1,1] GUI+F -->
  <line x1="300" y1="260" x2="312" y2="260" stroke="#22c55e" stroke-width="2"/>
  <polygon points="312,260 324,253 324,267" fill="#f97316" stroke="#f97316" stroke-width="1"/>
  <line x1="324" y1="254" x2="324" y2="266" stroke="#f97316" stroke-width="2.5"/>
  <line x1="324" y1="260" x2="350" y2="260" stroke="#22c55e" stroke-width="2"/>
  <line x1="350" y1="180" x2="350" y2="248" stroke="#3b82f6" stroke-width="2"/>
  <line x1="343" y1="248" x2="343" y2="257" stroke="#eab308" stroke-width="2.5"/>
  <line x1="357" y1="248" x2="357" y2="257" stroke="#eab308" stroke-width="2.5"/>
  <line x1="350" y1="257" x2="350" y2="260" stroke="#3b82f6" stroke-width="2"/>
  <circle cx="350" cy="260" r="3.5" fill="#60a5fa"/>
  <rect x="326" y="266" width="48" height="16" rx="3" fill="#1e1e30"/>
  <text x="350" y="278" fill="#94a3b8" font-size="9" text-anchor="middle">GUI+F</text>

  <!-- [1,2] ESC -->
  <line x1="400" y1="260" x2="412" y2="260" stroke="#22c55e" stroke-width="2"/>
  <polygon points="412,260 424,253 424,267" fill="#f97316" stroke="#f97316" stroke-width="1"/>
  <line x1="424" y1="254" x2="424" y2="266" stroke="#f97316" stroke-width="2.5"/>
  <line x1="424" y1="260" x2="450" y2="260" stroke="#22c55e" stroke-width="2"/>
  <line x1="450" y1="180" x2="450" y2="248" stroke="#3b82f6" stroke-width="2"/>
  <line x1="443" y1="248" x2="443" y2="257" stroke="#eab308" stroke-width="2.5"/>
  <line x1="457" y1="248" x2="457" y2="257" stroke="#eab308" stroke-width="2.5"/>
  <line x1="450" y1="257" x2="450" y2="260" stroke="#3b82f6" stroke-width="2"/>
  <circle cx="450" cy="260" r="3.5" fill="#60a5fa"/>
  <rect x="426" y="266" width="48" height="16" rx="3" fill="#1e1e30"/>
  <text x="450" y="278" fill="#94a3b8" font-size="9" text-anchor="middle">ESC</text>

  <!-- ROW 2 ─────────────────────────────────── -->
  <!-- [2,0] HOME -->
  <line x1="200" y1="360" x2="212" y2="360" stroke="#22c55e" stroke-width="2"/>
  <polygon points="212,360 224,353 224,367" fill="#f97316" stroke="#f97316" stroke-width="1"/>
  <line x1="224" y1="354" x2="224" y2="366" stroke="#f97316" stroke-width="2.5"/>
  <line x1="224" y1="360" x2="250" y2="360" stroke="#22c55e" stroke-width="2"/>
  <line x1="250" y1="280" x2="250" y2="348" stroke="#3b82f6" stroke-width="2"/>
  <line x1="243" y1="348" x2="243" y2="357" stroke="#eab308" stroke-width="2.5"/>
  <line x1="257" y1="348" x2="257" y2="357" stroke="#eab308" stroke-width="2.5"/>
  <line x1="250" y1="357" x2="250" y2="360" stroke="#3b82f6" stroke-width="2"/>
  <circle cx="250" cy="360" r="3.5" fill="#60a5fa"/>
  <rect x="226" y="366" width="48" height="16" rx="3" fill="#1e1e30"/>
  <text x="250" y="378" fill="#94a3b8" font-size="9" text-anchor="middle">HOME</text>

  <!-- [2,1] E -->
  <line x1="300" y1="360" x2="312" y2="360" stroke="#22c55e" stroke-width="2"/>
  <polygon points="312,360 324,353 324,367" fill="#f97316" stroke="#f97316" stroke-width="1"/>
  <line x1="324" y1="354" x2="324" y2="366" stroke="#f97316" stroke-width="2.5"/>
  <line x1="324" y1="360" x2="350" y2="360" stroke="#22c55e" stroke-width="2"/>
  <line x1="350" y1="280" x2="350" y2="348" stroke="#3b82f6" stroke-width="2"/>
  <line x1="343" y1="348" x2="343" y2="357" stroke="#eab308" stroke-width="2.5"/>
  <line x1="357" y1="348" x2="357" y2="357" stroke="#eab308" stroke-width="2.5"/>
  <line x1="350" y1="357" x2="350" y2="360" stroke="#3b82f6" stroke-width="2"/>
  <circle cx="350" cy="360" r="3.5" fill="#60a5fa"/>
  <rect x="326" y="366" width="48" height="16" rx="3" fill="#1e1e30"/>
  <text x="350" y="378" fill="#94a3b8" font-size="9" text-anchor="middle">E</text>

  <!-- [2,2] GUI+Z -->
  <line x1="400" y1="360" x2="412" y2="360" stroke="#22c55e" stroke-width="2"/>
  <polygon points="412,360 424,353 424,367" fill="#f97316" stroke="#f97316" stroke-width="1"/>
  <line x1="424" y1="354" x2="424" y2="366" stroke="#f97316" stroke-width="2.5"/>
  <line x1="424" y1="360" x2="450" y2="360" stroke="#22c55e" stroke-width="2"/>
  <line x1="450" y1="280" x2="450" y2="348" stroke="#3b82f6" stroke-width="2"/>
  <line x1="443" y1="348" x2="443" y2="357" stroke="#eab308" stroke-width="2.5"/>
  <line x1="457" y1="348" x2="457" y2="357" stroke="#eab308" stroke-width="2.5"/>
  <line x1="450" y1="357" x2="450" y2="360" stroke="#3b82f6" stroke-width="2"/>
  <circle cx="450" cy="360" r="3.5" fill="#60a5fa"/>
  <rect x="426" y="366" width="48" height="16" rx="3" fill="#1e1e30"/>
  <text x="450" y="378" fill="#94a3b8" font-size="9" text-anchor="middle">GUI+Z</text>

  <!-- [2,3] SPACE -->
  <line x1="500" y1="360" x2="512" y2="360" stroke="#22c55e" stroke-width="2"/>
  <polygon points="512,360 524,353 524,367" fill="#f97316" stroke="#f97316" stroke-width="1"/>
  <line x1="524" y1="354" x2="524" y2="366" stroke="#f97316" stroke-width="2.5"/>
  <line x1="524" y1="360" x2="550" y2="360" stroke="#22c55e" stroke-width="2"/>
  <line x1="550" y1="354" x2="550" y2="348" stroke="#3b82f6" stroke-width="2"/>
  <line x1="543" y1="348" x2="543" y2="357" stroke="#eab308" stroke-width="2.5"/>
  <line x1="557" y1="348" x2="557" y2="357" stroke="#eab308" stroke-width="2.5"/>
  <line x1="550" y1="357" x2="550" y2="360" stroke="#3b82f6" stroke-width="2"/>
  <circle cx="550" cy="360" r="3.5" fill="#60a5fa"/>
  <rect x="526" y="366" width="48" height="16" rx="3" fill="#1e1e30"/>
  <text x="550" y="378" fill="#94a3b8" font-size="9" text-anchor="middle">SPACE</text>

  <!-- [2,4] L -->
  <line x1="600" y1="360" x2="612" y2="360" stroke="#22c55e" stroke-width="2"/>
  <polygon points="612,360 624,353 624,367" fill="#f97316" stroke="#f97316" stroke-width="1"/>
  <line x1="624" y1="354" x2="624" y2="366" stroke="#f97316" stroke-width="2.5"/>
  <line x1="624" y1="360" x2="650" y2="360" stroke="#22c55e" stroke-width="2"/>
  <line x1="650" y1="354" x2="650" y2="348" stroke="#3b82f6" stroke-width="2"/>
  <line x1="643" y1="348" x2="643" y2="357" stroke="#eab308" stroke-width="2.5"/>
  <line x1="657" y1="348" x2="657" y2="357" stroke="#eab308" stroke-width="2.5"/>
  <line x1="650" y1="357" x2="650" y2="360" stroke="#3b82f6" stroke-width="2"/>
  <circle cx="650" cy="360" r="3.5" fill="#60a5fa"/>
  <rect x="626" y="366" width="48" height="16" rx="3" fill="#1e1e30"/>
  <text x="650" y="378" fill="#94a3b8" font-size="9" text-anchor="middle">L</text>

  <!-- ROW 3 ─────────────────────────────────── -->
  <!-- [3,0] SHIFT -->
  <line x1="200" y1="460" x2="212" y2="460" stroke="#22c55e" stroke-width="2"/>
  <polygon points="212,460 224,453 224,467" fill="#f97316" stroke="#f97316" stroke-width="1"/>
  <line x1="224" y1="454" x2="224" y2="466" stroke="#f97316" stroke-width="2.5"/>
  <line x1="224" y1="460" x2="250" y2="460" stroke="#22c55e" stroke-width="2"/>
  <line x1="250" y1="380" x2="250" y2="448" stroke="#3b82f6" stroke-width="2"/>
  <line x1="243" y1="448" x2="243" y2="457" stroke="#eab308" stroke-width="2.5"/>
  <line x1="257" y1="448" x2="257" y2="457" stroke="#eab308" stroke-width="2.5"/>
  <line x1="250" y1="457" x2="250" y2="460" stroke="#3b82f6" stroke-width="2"/>
  <circle cx="250" cy="460" r="3.5" fill="#60a5fa"/>
  <rect x="224" y="466" width="52" height="16" rx="3" fill="#1e1e30"/>
  <text x="250" y="478" fill="#94a3b8" font-size="9" text-anchor="middle">SHIFT</text>

  <!-- [3,1] GUI -->
  <line x1="300" y1="460" x2="312" y2="460" stroke="#22c55e" stroke-width="2"/>
  <polygon points="312,460 324,453 324,467" fill="#f97316" stroke="#f97316" stroke-width="1"/>
  <line x1="324" y1="454" x2="324" y2="466" stroke="#f97316" stroke-width="2.5"/>
  <line x1="324" y1="460" x2="350" y2="460" stroke="#22c55e" stroke-width="2"/>
  <line x1="350" y1="380" x2="350" y2="448" stroke="#3b82f6" stroke-width="2"/>
  <line x1="343" y1="448" x2="343" y2="457" stroke="#eab308" stroke-width="2.5"/>
  <line x1="357" y1="448" x2="357" y2="457" stroke="#eab308" stroke-width="2.5"/>
  <line x1="350" y1="457" x2="350" y2="460" stroke="#3b82f6" stroke-width="2"/>
  <circle cx="350" cy="460" r="3.5" fill="#60a5fa"/>
  <rect x="326" y="466" width="48" height="16" rx="3" fill="#1e1e30"/>
  <text x="350" y="478" fill="#94a3b8" font-size="9" text-anchor="middle">GUI</text>

  <!-- [3,2] UP -->
  <line x1="400" y1="460" x2="412" y2="460" stroke="#22c55e" stroke-width="2"/>
  <polygon points="412,460 424,453 424,467" fill="#f97316" stroke="#f97316" stroke-width="1"/>
  <line x1="424" y1="454" x2="424" y2="466" stroke="#f97316" stroke-width="2.5"/>
  <line x1="424" y1="460" x2="450" y2="460" stroke="#22c55e" stroke-width="2"/>
  <line x1="450" y1="380" x2="450" y2="448" stroke="#3b82f6" stroke-width="2"/>
  <line x1="443" y1="448" x2="443" y2="457" stroke="#eab308" stroke-width="2.5"/>
  <line x1="457" y1="448" x2="457" y2="457" stroke="#eab308" stroke-width="2.5"/>
  <line x1="450" y1="457" x2="450" y2="460" stroke="#3b82f6" stroke-width="2"/>
  <circle cx="450" cy="460" r="3.5" fill="#60a5fa"/>
  <rect x="426" y="466" width="48" height="16" rx="3" fill="#1e1e30"/>
  <text x="450" y="478" fill="#94a3b8" font-size="9" text-anchor="middle">UP</text>

  <!-- [3,3] TAB -->
  <line x1="500" y1="460" x2="512" y2="460" stroke="#22c55e" stroke-width="2"/>
  <polygon points="512,460 524,453 524,467" fill="#f97316" stroke="#f97316" stroke-width="1"/>
  <line x1="524" y1="454" x2="524" y2="466" stroke="#f97316" stroke-width="2.5"/>
  <line x1="524" y1="460" x2="550" y2="460" stroke="#22c55e" stroke-width="2"/>
  <line x1="550" y1="380" x2="550" y2="448" stroke="#3b82f6" stroke-width="2"/>
  <line x1="543" y1="448" x2="543" y2="457" stroke="#eab308" stroke-width="2.5"/>
  <line x1="557" y1="448" x2="557" y2="457" stroke="#eab308" stroke-width="2.5"/>
  <line x1="550" y1="457" x2="550" y2="460" stroke="#3b82f6" stroke-width="2"/>
  <circle cx="550" cy="460" r="3.5" fill="#60a5fa"/>
  <rect x="526" y="466" width="48" height="16" rx="3" fill="#1e1e30"/>
  <text x="550" y="478" fill="#94a3b8" font-size="9" text-anchor="middle">TAB</text>

  <!-- [3,4] RCTRL -->
  <line x1="600" y1="460" x2="612" y2="460" stroke="#22c55e" stroke-width="2"/>
  <polygon points="612,460 624,453 624,467" fill="#f97316" stroke="#f97316" stroke-width="1"/>
  <line x1="624" y1="454" x2="624" y2="466" stroke="#f97316" stroke-width="2.5"/>
  <line x1="624" y1="460" x2="650" y2="460" stroke="#22c55e" stroke-width="2"/>
  <line x1="650" y1="380" x2="650" y2="448" stroke="#3b82f6" stroke-width="2"/>
  <line x1="643" y1="448" x2="643" y2="457" stroke="#eab308" stroke-width="2.5"/>
  <line x1="657" y1="448" x2="657" y2="457" stroke="#eab308" stroke-width="2.5"/>
  <line x1="650" y1="457" x2="650" y2="460" stroke="#3b82f6" stroke-width="2"/>
  <circle cx="650" cy="460" r="3.5" fill="#60a5fa"/>
  <rect x="622" y="466" width="56" height="16" rx="3" fill="#1e1e30"/>
  <text x="650" y="478" fill="#94a3b8" font-size="8" text-anchor="middle">RCTRL</text>

  <!-- ROW 4 (no col0) ─────────────────────── -->
  <!-- [4,1] LEFT -->
  <line x1="300" y1="560" x2="312" y2="560" stroke="#22c55e" stroke-width="2"/>
  <polygon points="312,560 324,553 324,567" fill="#f97316" stroke="#f97316" stroke-width="1"/>
  <line x1="324" y1="554" x2="324" y2="566" stroke="#f97316" stroke-width="2.5"/>
  <line x1="324" y1="560" x2="350" y2="560" stroke="#22c55e" stroke-width="2"/>
  <line x1="350" y1="480" x2="350" y2="548" stroke="#3b82f6" stroke-width="2"/>
  <line x1="343" y1="548" x2="343" y2="557" stroke="#eab308" stroke-width="2.5"/>
  <line x1="357" y1="548" x2="357" y2="557" stroke="#eab308" stroke-width="2.5"/>
  <line x1="350" y1="557" x2="350" y2="560" stroke="#3b82f6" stroke-width="2"/>
  <circle cx="350" cy="560" r="3.5" fill="#60a5fa"/>
  <rect x="326" y="566" width="48" height="16" rx="3" fill="#1e1e30"/>
  <text x="350" y="578" fill="#94a3b8" font-size="9" text-anchor="middle">LEFT</text>

  <!-- [4,2] DOWN -->
  <line x1="400" y1="560" x2="412" y2="560" stroke="#22c55e" stroke-width="2"/>
  <polygon points="412,560 424,553 424,567" fill="#f97316" stroke="#f97316" stroke-width="1"/>
  <line x1="424" y1="554" x2="424" y2="566" stroke="#f97316" stroke-width="2.5"/>
  <line x1="424" y1="560" x2="450" y2="560" stroke="#22c55e" stroke-width="2"/>
  <line x1="450" y1="480" x2="450" y2="548" stroke="#3b82f6" stroke-width="2"/>
  <line x1="443" y1="548" x2="443" y2="557" stroke="#eab308" stroke-width="2.5"/>
  <line x1="457" y1="548" x2="457" y2="557" stroke="#eab308" stroke-width="2.5"/>
  <line x1="450" y1="557" x2="450" y2="560" stroke="#3b82f6" stroke-width="2"/>
  <circle cx="450" cy="560" r="3.5" fill="#60a5fa"/>
  <rect x="426" y="566" width="48" height="16" rx="3" fill="#1e1e30"/>
  <text x="450" y="578" fill="#94a3b8" font-size="9" text-anchor="middle">DOWN</text>

  <!-- [4,3] RIGHT -->
  <line x1="500" y1="560" x2="512" y2="560" stroke="#22c55e" stroke-width="2"/>
  <polygon points="512,560 524,553 524,567" fill="#f97316" stroke="#f97316" stroke-width="1"/>
  <line x1="524" y1="554" x2="524" y2="566" stroke="#f97316" stroke-width="2.5"/>
  <line x1="524" y1="560" x2="550" y2="560" stroke="#22c55e" stroke-width="2"/>
  <line x1="550" y1="480" x2="550" y2="548" stroke="#3b82f6" stroke-width="2"/>
  <line x1="543" y1="548" x2="543" y2="557" stroke="#eab308" stroke-width="2.5"/>
  <line x1="557" y1="548" x2="557" y2="557" stroke="#eab308" stroke-width="2.5"/>
  <line x1="550" y1="557" x2="550" y2="560" stroke="#3b82f6" stroke-width="2"/>
  <circle cx="550" cy="560" r="3.5" fill="#60a5fa"/>
  <rect x="522" y="566" width="56" height="16" rx="3" fill="#1e1e30"/>
  <text x="550" y="578" fill="#94a3b8" font-size="9" text-anchor="middle">RIGHT</text>

  <!-- [4,4] GUI+S -->
  <line x1="600" y1="560" x2="612" y2="560" stroke="#22c55e" stroke-width="2"/>
  <polygon points="612,560 624,553 624,567" fill="#f97316" stroke="#f97316" stroke-width="1"/>
  <line x1="624" y1="554" x2="624" y2="566" stroke="#f97316" stroke-width="2.5"/>
  <line x1="624" y1="560" x2="650" y2="560" stroke="#22c55e" stroke-width="2"/>
  <line x1="650" y1="480" x2="650" y2="548" stroke="#3b82f6" stroke-width="2"/>
  <line x1="643" y1="548" x2="643" y2="557" stroke="#eab308" stroke-width="2.5"/>
  <line x1="657" y1="548" x2="657" y2="557" stroke="#eab308" stroke-width="2.5"/>
  <line x1="650" y1="557" x2="650" y2="560" stroke="#3b82f6" stroke-width="2"/>
  <circle cx="650" cy="560" r="3.5" fill="#60a5fa"/>
  <rect x="622" y="566" width="56" height="16" rx="3" fill="#1e1e30"/>
  <text x="650" y="578" fill="#94a3b8" font-size="8" text-anchor="middle">GUI+S</text>

  <!-- GHOST POSITIONS -->
  <rect x="526" y="149" width="48" height="22" rx="3" fill="none" stroke="#1e2030" stroke-width="1" stroke-dasharray="4,3"/>
  <text x="550" y="164" fill="#252540" font-size="9" text-anchor="middle">no key</text>
  <rect x="626" y="149" width="48" height="22" rx="3" fill="none" stroke="#1e2030" stroke-width="1" stroke-dasharray="4,3"/>
  <text x="650" y="164" fill="#252540" font-size="9" text-anchor="middle">no key</text>
  <rect x="526" y="249" width="48" height="22" rx="3" fill="none" stroke="#1e2030" stroke-width="1" stroke-dasharray="4,3"/>
  <text x="550" y="264" fill="#252540" font-size="9" text-anchor="middle">no key</text>
  <rect x="626" y="249" width="48" height="22" rx="3" fill="none" stroke="#1e2030" stroke-width="1" stroke-dasharray="4,3"/>
  <text x="650" y="264" fill="#252540" font-size="9" text-anchor="middle">no key</text>
  <rect x="226" y="549" width="48" height="22" rx="3" fill="none" stroke="#1e2030" stroke-width="1" stroke-dasharray="4,3"/>
  <text x="250" y="564" fill="#252540" font-size="9" text-anchor="middle">no key</text>

  <!-- RIGHT PANEL: Legend + Notes -->
  <rect x="730" y="90" width="172" height="230" rx="8" fill="#0e0e1a" stroke="#252540" stroke-width="1"/>
  <text x="816" y="112" fill="#60a5fa" font-size="12" font-weight="700" text-anchor="middle">LEGEND</text>

  <line x1="748" y1="132" x2="800" y2="132" stroke="#22c55e" stroke-width="2"/>
  <text x="810" y="136" fill="#22c55e" font-size="11">Row wire</text>

  <line x1="748" y1="155" x2="800" y2="155" stroke="#3b82f6" stroke-width="2"/>
  <text x="810" y="159" fill="#3b82f6" font-size="11">Col wire</text>

  <!-- Diode: anode left (row), triangle points right, bar = cathode -->
  <line x1="748" y1="180" x2="760" y2="180" stroke="#22c55e" stroke-width="2"/>
  <polygon points="760,180 772,173 772,187" fill="#f97316" stroke="#f97316" stroke-width="1"/>
  <line x1="772" y1="173" x2="772" y2="187" stroke="#f97316" stroke-width="2.5"/>
  <line x1="772" y1="180" x2="800" y2="180" stroke="#22c55e" stroke-width="2"/>
  <text x="810" y="176" fill="#f97316" font-size="11">Diode</text>
  <text x="810" y="188" fill="#64748b" font-size="9">anode ◄ (row side)</text>
  <text x="810" y="198" fill="#64748b" font-size="9">| = cathode / stripe</text>

  <line x1="763" y1="222" x2="763" y2="230" stroke="#eab308" stroke-width="2.5"/>
  <line x1="777" y1="222" x2="777" y2="230" stroke="#eab308" stroke-width="2.5"/>
  <text x="810" y="230" fill="#eab308" font-size="11">Switch</text>

  <circle cx="770" cy="255" r="4" fill="#60a5fa"/>
  <text x="810" y="259" fill="#60a5fa" font-size="11">Junction</text>

  <rect x="754" y="274" width="32" height="18" rx="3" fill="none" stroke="#252540" stroke-width="1" stroke-dasharray="3,2"/>
  <text x="810" y="286" fill="#64748b" font-size="11">No switch</text>

  <!-- Diode orientation detail -->
  <rect x="730" y="336" width="172" height="128" rx="8" fill="#0e0e1a" stroke="#252540" stroke-width="1"/>
  <text x="816" y="356" fill="#60a5fa" font-size="11" font-weight="700" text-anchor="middle">DIODE 1N4148</text>
  <text x="740" y="374" fill="#94a3b8" font-size="10">Anode  →  ROW wire</text>
  <text x="740" y="389" fill="#94a3b8" font-size="10">Switch →  COL wire</text>
  <text x="740" y="404" fill="#94a3b8" font-size="10">(cathode / stripe on</text>
  <text x="740" y="417" fill="#94a3b8" font-size="10">col/switch side)</text>
  <rect x="740" y="428" width="152" height="24" rx="4" fill="#1e3a5f"/>
  <text x="816" y="444" fill="#60a5fa" font-size="10" font-weight="700" text-anchor="middle">columns_to_anodes=False</text>

  <!-- Pin summary -->
  <rect x="730" y="478" width="172" height="192" rx="8" fill="#0e0e1a" stroke="#252540" stroke-width="1"/>
  <text x="816" y="498" fill="#60a5fa" font-size="11" font-weight="700" text-anchor="middle">PIN SUMMARY</text>
  <text x="740" y="516" fill="#22c55e" font-size="10" font-weight="700">ROWS  (output)</text>
  <text x="740" y="530" fill="#94a3b8" font-size="10">GP0 R0  ·  GP1 R1</text>
  <text x="740" y="543" fill="#94a3b8" font-size="10">GP2 R2  ·  GP3 R3</text>
  <text x="740" y="556" fill="#94a3b8" font-size="10">GP4 R4</text>
  <text x="740" y="573" fill="#3b82f6" font-size="10" font-weight="700">COLS  (input)</text>
  <text x="740" y="587" fill="#94a3b8" font-size="10">GP9 C0  ·  GP8 C1</text>
  <text x="740" y="600" fill="#94a3b8" font-size="10">GP7 C2  ·  GP6 C3</text>
  <text x="740" y="613" fill="#94a3b8" font-size="10">GP5 C4</text>
  <text x="740" y="630" fill="#64748b" font-size="9">20 keys · 5 ghost positions</text>
  <text x="740" y="643" fill="#64748b" font-size="9">Internal pull-downs on cols</text>

</svg>
